<svg xmlns="http://www.w3.org/2000/svg" width="700" height="580" viewBox="0 0 700 580" role="img" aria-labelledby="title"><title id="title">NEXOLAB — Laboratory and refrigeration telemetry. Edge acquisition, live dashboards and historical data. INDUSTRIAL IoT. MODBUS · MQTT · FASTAPI · POSTGRESQL</title><defs><linearGradient id="cover" x2="1" y2="1"><stop stop-color="#0b1720"/><stop offset="1" stop-color="#194c51"/></linearGradient><linearGradient id="shine" x2="1" y2="1"><stop stop-color="#ecd8ff"/><stop offset="1" stop-color="#634980"/></linearGradient><clipPath id="clip"><rect width="700" height="580" rx="16"/></clipPath></defs><g font-family="Arial, Liberation Sans, DejaVu Sans, sans-serif"><g clip-path="url(#clip)"><rect width="700" height="580" fill="#f7f8fc"/><rect width="700" height="266" fill="url(#cover)"/><text x="40" y="52" fill="#c1bfd7" font-size="22" font-weight="400" letter-spacing="2">INDUSTRIAL INTELLIGENCE</text><text x="657" y="52" fill="#c1bfd7" font-size="22" font-weight="400" text-anchor="end">NL</text><g transform="translate(46 143) skewY(-5)"><rect x="0" y="38.5" width="12" height="13" rx="3" fill="#88dcd0" opacity=".85"/><rect x="22" y="35.0" width="12" height="20" rx="3" fill="#88dcd0" opacity=".85"/><rect x="44" y="24.0" width="12" height="42" rx="3" fill="#88dcd0" opacity=".85"/><rect x="66" y="10.0" width="12" height="70" rx="3" fill="#88dcd0" opacity=".85"/><rect x="88" y="33.0" width="12" height="24" rx="3" fill="#88dcd0" opacity=".85"/><rect x="110" y="28.0" width="12" height="34" rx="3" fill="#88dcd0" opacity=".85"/><rect x="132" y="0.0" width="12" height="90" rx="3" fill="#88dcd0" opacity=".85"/><rect x="154" y="33.0" width="12" height="24" rx="3" fill="#88dcd0" opacity=".85"/><rect x="176" y="24.0" width="12" height="42" rx="3" fill="#88dcd0" opacity=".85"/><rect x="198" y="7.0" width="12" height="76" rx="3" fill="#88dcd0" opacity=".85"/><rect x="220" y="32.0" width="12" height="26" rx="3" fill="#88dcd0" opacity=".85"/><rect x="242" y="34.0" width="12" height="22" rx="3" fill="#88dcd0" opacity=".85"/><rect x="264" y="1.5" width="12" height="87" rx="3" fill="#88dcd0" opacity=".85"/><rect x="286" y="26.5" width="12" height="37" rx="3" fill="#88dcd0" opacity=".85"/><rect x="308" y="30.5" width="12" height="29" rx="3" fill="#88dcd0" opacity=".85"/><rect x="330" y="9.0" width="12" height="72" rx="3" fill="#88dcd0" opacity=".85"/><rect x="352" y="30.0" width="12" height="30" rx="3" fill="#88dcd0" opacity=".85"/><rect x="374" y="36.0" width="12" height="18" rx="3" fill="#88dcd0" opacity=".85"/><rect x="396" y="2.5" width="12" height="85" rx="3" fill="#88dcd0" opacity=".85"/><rect x="418" y="26.0" width="12" height="38" rx="3" fill="#88dcd0" opacity=".85"/><rect x="440" y="12.5" width="12" height="65" rx="3" fill="#88dcd0" opacity=".85"/><rect x="462" y="33.0" width="12" height="24" rx="3" fill="#88dcd0" opacity=".85"/><rect x="484" y="25.0" width="12" height="40" rx="3" fill="#88dcd0" opacity=".85"/><rect x="506" y="10.0" width="12" height="70" rx="3" fill="#88dcd0" opacity=".85"/><rect x="528" y="35.0" width="12" height="20" rx="3" fill="#88dcd0" opacity=".85"/><rect x="550" y="27.5" width="12" height="35" rx="3" fill="#88dcd0" opacity=".85"/><rect x="572" y="15.0" width="12" height="60" rx="3" fill="#88dcd0" opacity=".85"/><rect x="594" y="37.0" width="12" height="16" rx="3" fill="#88dcd0" opacity=".85"/></g><text x="39" y="334" fill="#222630" font-size="44" font-weight="500" letter-spacing="-1">NEXOLAB</text><text x="657" y="330" fill="#606776" font-size="22" font-weight="400" text-anchor="end">INDUSTRIAL IoT</text><text x="40" y="392" fill="#606776" font-size="29" font-weight="400" >Laboratory and refrigeration telemetry.</text><text x="40" y="434" fill="#606776" font-size="29" font-weight="400" >Edge acquisition, live dashboards and</text><text x="40" y="476" fill="#606776" font-size="29" font-weight="400" >historical data.</text><text x="40" y="548" fill="#6944bd" font-size="22" font-weight="400" >MODBUS · MQTT · FASTAPI · POSTGRESQL</text></g><rect x="1" y="1" width="698" height="578" rx="16" fill="none" stroke="#d9dde5" stroke-width="2"/></g></svg>
